<?xml version="1.0" encoding="utf-8"?>
<!-- Generator: Adobe Illustrator 19.2.1, SVG Export Plug-In . SVG Version: 6.00 Build 0)  -->
<svg version="1.1" id="layer" xmlns="http://www.w3.org/2000/svg" xmlns:xlink="http://www.w3.org/1999/xlink" x="0px" y="0px"
	 viewBox="0 0 652 652" style="enable-background:new 0 0 652 652;" xml:space="preserve">
<style type="text/css">
	.st0{fill:#C0A353;}
	.st1{fill-rule:evenodd;clip-rule:evenodd;fill:#C0A353;}
	.st2{fill-rule:evenodd;clip-rule:evenodd;fill:#0E2F8F;}
	.st3{fill:#009D42;}
</style>
<path class="st0" d="M534,76.5H119.2c-24.4,0-44.2,19.5-44.2,43.8v412.3c0,24.2,19.7,43.9,44.2,43.9H534c24.4,0,44.2-19.6,44.2-43.9
	V120.3C578.3,96.1,558.4,76.5,534,76.5 M562.4,532.6c0,15.5-12.7,28.1-28.3,28.1H119.2c-15.6,0-28.4-12.6-28.4-28.1V120.5
	c0-15.5,12.8-28.2,28.4-28.2H534c15.6,0,28.3,12.7,28.3,28.2V532.6z"/>
<path class="st1" d="M447,316.1c-3.5,10.2-10.4,28.1-28.9,43.5c-6.9,5.8-13.5,10.5-20.1,14.2c4.9-2,10.1-4.1,16.3-6
	c7.9-2.8,32.8-8.3,56.1-4.2l8.3,1.5l-5.9,6.1c-1.2,1-2.9,3-5.5,5.4c-2.7,2.4-6.1,5.2-10.6,7.9c-8.9,5.6-21.2,11.1-38.1,13.6
	c-4.7,0.7-9.3,1.6-14.1,2.2c-5.1,0.7-10.5,1.1-15.9,0.9c-7.4-0.5-11.6-1.9-18.9-2.5c-0.3,0.1-0.8,0-1.1-0.1H368
	c-5.6-1.3-10.1-0.1-10.1-0.1c-4,1.3-11.8,4.4-19.4,7.6c1.4,1,2.1,1.6,3.3,2.7c9.6,7.8,7.4,16,7.4,16l-12.9-9
	c-0.6-0.4-2.7-1.4-5.6-2.7l-3.7-1.8c-4.1,2-7.5,3.8-9,4.9l-12.3,8.1c0,0-2.7-6.1,3.9-13.4c2-2.1,4.5-3.3,6.1-4.6
	c-9-3.9-17-7.1-18.7-7.2l-8.4-0.7c-1,0.2-6.1,0.5-6.9,0.6c-4.4,0.7-19.3,6-49.9-1.2c-30.7-7.1-39.1-15-50.3-25.5l-4.9-6.4l7-1.3
	c15.1-3.3,38-2.1,53.3,2.8c6.5,2,13.3,4.5,19.2,7c-6.6-3.8-13.8-8.7-21.2-15.1c-10.2-8.9-16.8-18.1-21.2-25.8
	c-2.1-3.8-3.6-7.2-4.7-10.2c-1.2-2.8-1.9-5.2-2.4-6.5l-2.6-7.8c-0.3,5-1.1,10.1-2.3,15.8l-2.8,7.3c6.1,6.2,10.8,12.3,15.3,19.2
	l5.3,7.8l-8.4-0.6c-8.1-0.3-30.7-5.7-49.2-20.3c-2.8-2.3-5.5-4.3-8.1-6.5c-2.7-2.4-5.1-4.8-7.7-7.6c-5.2-5.9-10.3-13.4-16.2-25.2
	l-4.9-9.9l10.4,3.6c10.4,3.6,31.9,12.3,46.8,24.4c5.9,4.8,6.7,5.1,6.7,5.1c-3.3-4.5-11.8-13.4-17.6-31.6c-2.5-8.6-2.7-17.8-2.5-24.6
	c0.2-6.6,1.2-11.3,1.2-11.5c-1.9,5.5-4.1,9.9-6.6,14.7l-3.7,7c3.1,6.9,5.4,13.3,7.7,19l4.5,11.6l-10.9-5.9c-0.9-0.6-2.5-1.3-4.6-2.7
	c-2-1.4-4.6-3.1-7.6-5.7c-5.8-5.1-12.8-13.2-20.6-26.2c-8.2-14-10-29.2-10-38.8l0.4-9.5l7.3,6.3c2.6,2.7,6.2,6.2,10.5,11.3
	c4.3,5.3,9.2,12.1,14.1,21.3c1,2,2,3.9,2.9,5.8c-0.4-2-1-4.4-1.5-6.9c-1-5.4-1.6-11.9-0.7-19.2c1.2-10,4.9-18,7.7-22.9l-6.3,5.7
	c-0.6,4.2-1.9,9.5-3.1,13.6l-3.1,11.2l-4.8-8.6c-3.2-4.6-10.2-22-11-40c-0.4-9.2,4-27.8,10.1-34.9l5.4-6.3l2.4,7.9
	c2.6,8.4,5.6,21.5,5.6,33.3v2.5c0.1-0.8,0.3-1.5,0.5-2.2c1.2-5.1,3.3-11,7-17.9c3.7-7,8.3-12.2,12.1-15.8c2-1.9,3.8-3.3,5.1-4.3
	c1.2-0.8,2-1.5,2.4-1.7l9.5-6.1l-2.2,10.6c-1.2,5.3-5,18.4-9.6,26.9c-3.2,5.7-7.1,11.3-11.8,16.8l2.4,5.1c3,6.3,5.9,14.9,3.6,30.3
	c-0.5,2.7-0.9,5.1-1.4,7.3l5.1,3.5c3.5,2.4,16.7,20.2,22.3,33c3.8,8.7,5.1,16.5,4.8,24.7l8.3,2.9c10.5,3.7,28.9,11.7,47.5,29
	c9,8.4,14.7,14.4,19,20c4.4,5.5,7.5,10.6,12,17.5l4,7l-8.4-0.1c-4.8-0.5-10.1-1.7-16.1-3.7c0.8,0.4,1.6,0.8,2.1,1.1
	c5,3.1,11.6,6.9,12.6,7.5c0.8,0,0.4-0.1,2.6,0.2c0,0,5.1-0.4,8.4-0.1c5.5,0.3,13.8,2.8,13.8,2.8c4.8,1.5,9.5,3.6,13.3,5.5l3.9,1.9
	c9.9-5,17.1-8.8,29.1-9.9c8-0.7,11.2-0.2,13.5-1c0.6-0.4,4.6-3.2,12.1-7.2l1.8-1c-5.3,1.9-10.8,3.1-16.5,3.9l-7.8,0.1l3.4-6.9
	c7.8-12.8,15.3-23.4,29.6-36.7c14.2-13.5,28.3-21.6,48.6-30.3l7.6-3.1C448.1,311.3,447,316.1,447,316.1 M449.2,307
	c0-6.2,1.1-13.6,4.6-22.9c2.9-7.2,6.3-13.4,9.2-18c2.7-4.4,5-7.3,5.8-8.8c1.1-1.5,2.3-3.1,3.3-4.4c0.9-1.2,1.9-2.2,2.5-2.9l5.6-7.1
	c-0.4-2.3-0.7-4.7-0.9-7.2c-1.2-14,0.5-22,3.5-28.1l2.5-5c-4.2-4.7-8.9-11-13-19.2c-3.5-6.8-5.5-12.1-6.8-16.1
	c-1.1-4-1.5-6.8-1.8-8.4l-2.3-10.5l9.4,6c5,3.7,13.9,11.4,19.6,21.7c3.8,7.1,6.2,13.7,7.7,20.6c0.2-9.9,2.4-28.8,5.9-37.1l2.5-8.5
	l5.7,8c3.8,7.3,10.1,19.3,9.8,36.3c-0.1,8-4.5,24.5-10,36.5l-5.7,10.8l-2.7-11.5c-1-3.4-2.1-8.6-3.1-14l-6.8-5.2
	c4,6.5,7.5,13.7,8.1,23.2c0.4,8.6-0.8,18.6-2.7,27.1c1.4-2.9,2.8-5.8,4.4-8.5c6.8-12.6,15.4-24.1,24-31.8l7.3-6.2l0.4,9.8
	c-0.5,8.9-1.8,25.4-10.8,40c-8.5,13.6-17.4,25.8-31.4,33.5c-3.9,2.2-10.7,4.8-10.7,4.8l2.9-9.1c1.9-5.3,5.3-12.9,8.2-19.9l-3.8-7.7
	c-1.9-4.1-4.1-8.4-6-13.4c-0.5-1.1-0.8-2.2-1.2-3.4l0.3,1.2c1,4.5,3.4,20.1-0.4,34.9c-3.3,13.8-10.9,26.2-19.7,36.9
	c2-1.7,3.9-3.5,6.1-5.4c8-6.6,20.7-15.5,49.3-27l10.6-4.3l-4.8,10.4c-0.9,1.9-1.9,4.2-3.3,6.9c-1.5,2.8-3.4,6-5.9,9.5
	c-4.7,6.9-11.6,14.8-21.9,22.8c-12.4,9.6-29.9,18-48.2,21.7l-9.8,2l4.9-8.6c3.1-5.2,8.2-12.5,15.4-20.3l-2.2-6.5
	c-1.6-4.3-3.1-9.2-3.5-15.5L449.2,307z M468.7,146.5c-6.5-9.9-10.5-23.1-11-24.8l-5-15.8l12.5,11.2c5.5,5,14.1,13.5,19.9,21.2
	c6.8,8.5,9.5,16.4,11.3,27.4l1.9,13.6l-9.4-9.5C481.5,163.3,475.1,156.1,468.7,146.5 M169,137.6c3.4-4,7.1-8.4,11.1-12.4
	c2-2,3.7-3.7,5.1-5l13.4-11.9c-4.5,18.8-10.1,33.1-16.5,42.1c-3.1,4.4-5.7,7.5-8.4,10.6c-2.8,3.2-5.7,6.1-9.8,10.5l-9.7,9L156,168
	C157.3,159,161.4,146.5,169,137.6 M379.9,279.6c13.8-2.1,26.5-6.8,34.3-16.3c7.4-9.2,7.8-21.4,4.9-33.6c-2.3-8.8-6-17-9.2-23
	c-12,15.3-43.8,56.6-57.5,74.5C360.3,281.3,370.2,281.2,379.9,279.6 M327.5,249.9c5.4-7.6,15.7-22.1,22-30.8
	c-4.2-6-14.8-20.8-22.6-31.8c-4.9,7.3-14,20.5-21.8,32.2C312.2,229.8,322.2,242.9,327.5,249.9 M244.5,208.2
	c-5.2,9.9-12.1,27.3-9.3,44.6c3.3,20,31.4,30.6,68.3,29.4C288.9,264,256.1,222.7,244.5,208.2 M346.8,318.2v1.2
	c0,6.4,0.4,49.6,0.4,49.6h-38.4v-50.2c-4.6,0.1-11.3,0.1-19.4-0.3c-11.3-0.5-25.4-2.1-39.1-6c-27.4-7.8-54.4-25.4-54.4-64.2
	c0-13.3,1.9-46.1,44.6-106.9l3.4-4.9l3.7,4.8c7.2,9.1,24.3,32.8,31.8,43.4c13.2-17.7,47.5-62.9,47.5-62.9l3.6,4.9
	c9.6,13.4,33.8,45.7,42.9,58.1l36.1-49.4l3.7,4.7c14.5,17.9,45.8,66.4,45.8,106.5c0,41.6-27.2,60-65,67.8c-15.1,3-41.2,4-45.1,4
	H346.8z"/>
<path class="st2" d="M430.6,530.9H405v-83.2c0-13,6.7-21,25.2-21h71v23.9h-59.3c-7.1,0-11.3-0.5-11.3,5.2v16.3h70.5v24.4h-70.5
	V530.9z M235.5,487.5v7.5c0,4.5-3.8,8.3-8.4,8.3h-28.6c-4.5,0-8.4-3.7-8.4-8.3v-32.4c0-4.6,3.9-8.3,8.4-8.3H227
	c4.6,0,8.4,1.9,8.4,8.3l0.1,5.5h30.2v-20.4c0-13.3-9-20.1-21.2-20.1H184c-14.5,0-24.9,4.6-24.9,24.1v54.3c0,14.6,4.5,25,23.5,25
	h58.1c13,0,26.4-2,26.4-27.3v-16.3H235.5z M366.9,426.3h-60c-4.8,0-23.4-0.4-23.4,21.5v83.1h26.8v-34.3H366
	c12.1,0,24.6-3.9,24.6-20.5v-28.9C390.6,437.1,384.2,426.3,366.9,426.3 M364,466.8c0,3-1.4,5.4-7,5.4c-5.5,0-44.9,0-46.6,0v-15.5
	c0-3.9,0.9-4.7,5.7-4.7h41.7c4.1,0,6.2,0.5,6.2,4.7V466.8z"/>
<path class="st3" d="M313.2,314.2L313.2,314.2L313.2,314.2l0,50.3h29.3h0.1l-0.1-50.2h-0.1v0c0,0,3,0,6.4,0c4,0,29.4-1.5,44.3-4.5
	c36.7-7.6,61.3-24.8,61.3-63.3c0-38.4-30.3-85.9-44.8-103.8l-36,49.6c0,0-34.8-46.4-46.8-63c0,0-37.7,49.8-47.5,62.9
	c0,0-26-36.5-35.2-48.2c-42.1,60.1-43.6,92.1-43.6,104.3C200.5,319.9,299.1,314.2,313.2,314.2 M410.6,198.6
	c7,11.7,24.7,45.7,7.2,67.4c-17.6,21.6-56.5,19.9-74.4,19.5C351.6,274.6,404.8,205.7,410.6,198.6 M326.9,179.5
	c9.4,13.3,28.1,39.7,28.1,39.7c-7.7,10.8-27.3,38.3-27.3,38.3s-17.7-23.2-28.2-37.9C311.1,202.4,326.9,179.5,326.9,179.5 M244,200.2
	c0,0,57.8,72.6,68.5,86.1c-40.3,3.2-77.3-6.8-81.6-32.7C227,230.6,239,207.9,244,200.2 M517.5,195.4c0.2-15.7-5.6-26.9-9.4-34
	c-3.3,7.5-5.5,26-5.5,35.6c0,9.5,3,25.7,5.1,33.1C513.3,218.5,517.4,202.6,517.5,195.4 M468.1,158c0.6,3.2,1.5,10.4,8.3,23.3
	c6.7,13,14.6,20.9,19.3,25.3c-2-10.2-3.9-18.8-9.3-28.3C481.1,168.8,472.9,161.5,468.1,158 M174.6,254.1c0,0.7-3.5,18.8,1.3,34.9
	c5.9,19.4,17.1,31.4,21.4,34.5c3.3-15,3.5-25.6-2.1-38.4C189.6,272.4,177,255.6,174.6,254.1 M210.8,315.3
	c1.8,5.6,7.2,23.4,26.9,40.5c19.9,17.1,37.2,22.9,49.4,24.1c-8.9-13.4-12.3-19.9-30.4-36.7C238.8,326.6,221,318.8,210.8,315.3
	 M457,323.2c9.3-10.8,17.4-23.6,20.8-37.6c3.5-13.9,1.2-28.6,0.3-32.7c-1.2,1.4-3.7,4.1-5.3,6.8c-1.7,2.6-9.4,12.1-14.7,25.9
	C450.8,304.5,454.1,314.9,457,323.2 M492.1,166.6c-2-10.6-4.4-17.7-10.5-25.6c-5.8-7.5-14-15.7-19.4-20.6
	c0.3,1.5,4.2,14.4,10.2,23.6C478.6,153.3,484.8,160.2,492.1,166.6 M184.3,159.3c-1.4,1.1-11.5,7.5-18.5,20.5
	c-7,13-7.5,22.2-8.8,28.9c7.5-7.8,13.9-15.5,18.1-23.5C179.4,177.2,183.2,164.5,184.3,159.3 M483.9,235.4
	c1.1,13.5,5.7,22.2,9.6,30.1c2.5-9.1,4-20.3,3.6-29.8c-0.6-9.4-5.9-19.4-10.2-26C484.4,214.7,482.7,221.8,483.9,235.4 M190.4,121.2
	c-0.2,0.3-12.5,12.2-19.2,19.8c-6.7,7.8-9.5,18.8-10.7,27.5c8.2-8.5,11.9-12.2,17.8-20.6C184.3,139.4,187.6,129.6,190.4,121.2
	 M442.6,314.7c-20,8.6-33.4,16.3-47.2,29.5c-13.8,13.1-21.2,23.2-28.8,35.7c16.8-2.2,31.2-9.2,48.6-23.8
	C432.7,341.5,439.3,324.5,442.6,314.7 M415.7,372c-27.9,9.4-42.4,19.7-43.4,20.4c-1,0.7-1.7,1.2-4,1.6c8.3,0.6,12.5,2.1,20.4,2.5
	c10.6,0.6,19.9-1.7,29.2-3c32.4-4.6,47.4-21.3,51.7-25.5C447.2,364.1,423.2,369.5,415.7,372 M333.6,408.2c-0.5,0.3-0.7,0.5-1,0.6
	c3.1,1.4,5.3,2.5,5.9,2.9C337.9,411,336.1,409.7,333.6,408.2 M315.2,412.4c5.7-4.5,32.6-15.5,41.3-18.2
	C345.1,394.8,320.7,406.5,315.2,412.4 M443.5,353.7c17.6-3.6,34.6-11.7,46.4-20.9c19.6-15.4,26.5-30.5,29.7-37.5
	c-28.1,11.3-40.5,20.1-48.1,26.4C457.5,333.3,447.9,346,443.5,353.7 M507.3,256.1c-6.8,12.3-13.3,29-17,39.6
	c17-11.6,21.9-18.9,30.1-32.4c8.3-13.4,9.6-28.9,10-37.8C522.4,232.8,514,243.8,507.3,256.1 M168.8,238.9
	c2.1-14.3-0.6-22.1-3.2-27.6c-1.6,2.1-8.2,11.9-9.8,25.5c-1.5,13.5,2.1,24,3.7,30C163.6,258.9,166.8,252.2,168.8,238.9 M145.4,231.4
	c3.3-12.1,4.4-25,4.4-36.2c0-11.2-2.9-23.8-5.4-32c-5.2,5.9-9.4,23.4-9.1,31.8C136.1,212.3,142.7,227.7,145.4,231.4 M163.3,296.4
	c-4.1-10.5-8.6-22.6-16.6-37.7c-9.5-17.8-18.9-26.5-23.9-31.6c0,9.1,1.8,23.4,9.5,36.5C147.1,288.9,159.5,294.4,163.3,296.4
	 M322.2,402l-0.8-0.3c-7.8-3.6-17.1-7.5-23.8-7.4c2.7,0.4,13.1,4.6,22.7,8.9L322.2,402z M284.7,393.7c-0.8,0-1.2-0.1-2-0.6
	c-0.8-0.5-7.4-4.4-12.5-7.4c-5-3-20.2-9.7-34.8-14.3c-14.6-4.5-36.6-5.7-50.9-2.6c10.8,10.2,18.6,17.6,48.4,24.4
	c29.7,7,49.9,1.6,50.9,1.3c1-0.4,2.2-0.3,3.6-0.7C285.2,393.6,285.2,393.7,284.7,393.7 M179.5,320.4c-14.5-11.7-35.3-20.2-45.6-23.7
	c11.7,23.1,19.5,29,30.8,37.8c17.8,14,38.6,18.7,45.8,19C202.6,341.9,194.3,332.3,179.5,320.4"/>
</svg>
